<svg width="219" height="88" viewBox="0 0 219 88" fill="none" xmlns="http://www.w3.org/2000/svg">
<path d="M0 57V0.359997H8.64V57H0ZM11.52 57V0.359997H20.16V57H11.52ZM23.04 57V0.359997H28.8V57H23.04ZM9.024 65.352H16.128C18.496 65.352 20.256 65.96 21.408 67.176C22.624 68.328 23.232 69.832 23.232 71.688C23.232 73.48 22.656 74.952 21.504 76.104C20.352 77.256 18.624 77.832 16.32 77.832H11.616V87.624H9.024V65.352ZM16.032 75.624C17.632 75.624 18.784 75.272 19.488 74.568C20.256 73.928 20.64 73 20.64 71.784C20.64 70.568 20.256 69.608 19.488 68.904C18.72 68.136 17.6 67.752 16.128 67.752H11.616V75.624H16.032ZM31.6875 57V0.359997H37.4475V57H31.6875ZM46.0875 57V0.359997H48.9675V57H46.0875ZM51.8475 57V0.359997H54.7275V57H51.8475ZM40.4235 65.352H43.3035V65.64C43.1755 65.768 43.0795 65.928 43.0155 66.12C43.0155 66.248 43.0155 66.536 43.0155 66.984V74.856H51.6555V65.352H54.6315V65.64C54.5035 65.768 54.4075 65.928 54.3435 66.12C54.3435 66.248 54.3435 66.536 54.3435 66.984V87.624H51.6555V77.064H43.0155V87.624H40.4235V65.352ZM63.375 57V0.359997H66.255V57H63.375ZM72.015 57V0.359997H80.655V57H72.015ZM83.535 57V0.359997H89.295V57H83.535ZM79.215 65.256C81.391 65.256 83.087 66.248 84.303 68.232C85.519 70.28 86.127 73.064 86.127 76.584C86.127 80.232 85.519 83.048 84.303 85.032C83.151 87.016 81.455 88.008 79.215 88.008C76.975 88.008 75.279 87.016 74.127 85.032C72.911 83.048 72.303 80.232 72.303 76.584C72.303 73.064 72.911 70.28 74.127 68.232C75.343 66.248 77.039 65.256 79.215 65.256ZM79.215 67.464C77.871 67.464 76.815 68.264 76.047 69.864C75.279 71.528 74.895 73.768 74.895 76.584C74.895 78.184 74.991 79.56 75.183 80.712L82.767 70.92C82.447 69.832 81.967 68.968 81.327 68.328C80.751 67.752 80.047 67.464 79.215 67.464ZM79.215 85.8C80.559 85.8 81.615 85.032 82.383 83.496C83.151 81.896 83.535 79.592 83.535 76.584C83.535 75.24 83.439 74.056 83.247 73.032L75.759 82.728C76.463 84.776 77.615 85.8 79.215 85.8ZM95.0625 57V0.359997H97.9425V57H95.0625ZM106.583 57V0.359997H112.343V57H106.583ZM115.223 57V0.359997H118.103V57H115.223ZM104.087 65.352H117.719V67.56H106.391V74.856H115.799V77.16H106.391V85.416H117.623V87.624H104.087V65.352ZM126.75 57V0.359997H129.63V57H126.75ZM132.51 57V0.359997H141.15V57H132.51ZM149.79 57V0.359997H155.55V57H149.79ZM135.486 65.352H137.886L147.198 81.864V65.352H149.982V65.64C149.79 65.768 149.694 65.928 149.694 66.12C149.63 66.248 149.598 66.536 149.598 66.984V87.624H147.678L137.79 70.152V87.624H135.486V65.352ZM158.438 57V0.359997H161.318V57H158.438ZM167.078 57V0.359997H175.718V57H167.078ZM181.478 57V0.359997H187.238V57H181.478ZM173.606 68.424L169.094 69.768L168.518 68.424L174.278 65.352H176.102V87.624H173.606V68.424ZM190.125 57V0.359997H198.765V57H190.125ZM207.405 57V0.359997H210.285V57H207.405ZM213.165 57V0.359997H218.925V57H213.165ZM204.525 76.296L198.573 65.352H201.261L205.965 73.8L210.573 65.352H213.069L207.405 76.2L213.741 87.624H210.957L205.965 78.792L201.165 87.624H198.477L204.525 76.296Z" fill="#F2EFEA"/>
</svg>
